<svg width="1214" height="526.833" viewBox="0 0 321.204 139.391" xmlns="http://www.w3.org/2000/svg"><defs><filter id="a" x="-.004" y="-.01" width="1.009" height="1.02" color-interpolation-filters="sRGB"><feGaussianBlur stdDeviation=".523"/></filter></defs><g filter="url(#a)"><g fill="#441517"><g stroke-width=".423"><path d="M30.761 19.268l-6.794 3.923-6.793-3.923v-7.845l6.793-3.922 6.794 3.922zM38.084 31.952l-6.794 3.922-6.793-3.922v-7.845l6.793-3.922 6.794 3.922z"/><path d="M30.761 44.636l-6.794 3.922-6.793-3.922V36.79l6.793-3.922 6.794 3.922z" style="mix-blend-mode:normal"/></g><path d="M16.644 45.552l-6.793 3.922v7.845l6.793 3.923 6.794-3.923v-7.845zm0 1.224l5.734 3.31v6.622l-5.734 3.31-5.734-3.31v-6.622z" style="mix-blend-mode:normal"/></g><path d="M121.759 127.39l-6.794 3.923-6.794-3.922v-7.845l6.794-3.922 6.794 3.922z" fill="#441517"/><g fill="#441517"><g stroke-width=".423"><path d="M151.05 67.086v-7.844l6.794-3.923 6.794 3.923v7.844l-6.794 3.923zM136.405 67.086v-7.844l6.793-3.923 6.794 3.923v7.844l-6.794 3.923z"/><path d="M129.082 54.403v-7.845l6.793-3.923 6.794 3.923v7.845l-6.794 3.922z" style="mix-blend-mode:normal"/></g><path d="M135.346 41.719v-7.845l-6.793-3.922-6.794 3.922v7.845l6.794 3.923zm-1.06-.612l-5.733 3.31-5.734-3.31v-6.62l5.734-3.312 5.734 3.311z" style="mix-blend-mode:normal"/></g><g fill="#fff"><path d="M197.328 22.215l-2.03 7.578 5.547 5.547 7.578-2.03 2.03-7.578-5.547-5.547zm.866.866l6.395-1.714 4.682 4.682-1.714 6.395-6.395 1.714-4.682-4.682zM201.12 36.362l-2.031 7.578 5.547 5.547 7.577-2.03 2.03-7.578-5.546-5.547zm.864.866l6.396-1.714 4.682 4.682-1.714 6.395-6.395 1.714-4.682-4.682zM211.476 26.006l-2.031 7.578 5.547 5.547 7.578-2.03 2.03-7.578-5.547-5.548zm.865.865l6.395-1.713 4.682 4.682-1.714 6.395-6.395 1.714-4.682-4.682z" opacity=".25"/></g><g fill="#fff"><path d="M88.796 90.851v-7.844l-6.793-3.923-6.794 3.923v7.845l6.794 3.922zm-1.06-.611l-5.733 3.31-5.735-3.31v-6.621l5.734-3.311 5.735 3.31zM81.473 78.168v-7.845L74.68 66.4l-6.793 3.923v7.845l6.794 3.922zm-1.06-.612l-5.733 3.31-5.735-3.31v-6.621l5.734-3.311 5.735 3.31zM74.15 90.851v-7.844l-6.794-3.923-6.793 3.923v7.845l6.793 3.922zm-1.06-.611l-5.733 3.31-5.735-3.31v-6.621l5.734-3.311 5.735 3.31z" opacity=".25"/></g><path d="M76.71 27.762l-2.03-7.577 5.547-5.547 7.577 2.03 2.03 7.578-5.547 5.547z" fill="#441517"/><g fill="#441517" stroke-width=".423"><path d="M222.848 118.795l-7.578 2.03-5.547-5.547 2.03-7.577 7.578-2.03 5.547 5.546zM208.701 115.004l-7.578 2.03-5.547-5.547 2.03-7.577 7.578-2.03 5.547 5.547zM198.345 125.36l-7.578 2.03-5.547-5.546 2.03-7.578 7.578-2.03 5.547 5.547z"/></g><path d="M301.896 9.09l-7.578-2.03-5.547 5.547 2.03 7.578 7.578 2.03 5.547-5.547zm-.866.866l1.714 6.395-4.682 4.682-6.395-1.714-1.714-6.395 4.682-4.682z" fill="#fff" opacity=".25"/><g fill="#441517" stroke-width=".423"><path d="M275.646 74.11l-2.03-7.578 5.547-5.547 7.577 2.03 2.03 7.578-5.546 5.547zM261.5 77.9l-2.031-7.577 5.547-5.547 7.577 2.03 2.03 7.577-5.546 5.548zM265.29 63.753l-2.03-7.577 5.547-5.547 7.577 2.03 2.03 7.578-5.547 5.547z"/></g><path d="M281.066 108.33l-6.794-3.922-6.794 3.923v7.845l6.794 3.922 6.794-3.922zm-1.06.613v6.62l-5.734 3.311-5.734-3.31v-6.621l5.734-3.31zM33.046 107.746l-7.577 2.03-2.03 7.577 5.547 5.547 7.577-2.03 2.03-7.577zm-.316 1.182l4.681 4.681-1.713 6.396-6.396 1.713-4.682-4.681 1.714-6.396z" fill="#fff" opacity=".25"/></g></svg>