<svg xmlns="http://www.w3.org/2000/svg" xmlns:xlink="http://www.w3.org/1999/xlink" viewBox="0 0 202.24 115.29"><defs><style>.cls-1{fill:url(#Dégradé_sans_nom_10);}</style><linearGradient id="Dégradé_sans_nom_10" x1="101.12" x2="101.12" y2="115.29" gradientUnits="userSpaceOnUse"><stop offset="0" stop-color="#454545"/><stop offset="1" stop-color="#292929"/></linearGradient></defs><title>Fichier 1</title><g id="Calque_2" data-name="Calque 2"><g id="Layer_1" data-name="Layer 1"><path class="cls-1" d="M2.29,52.53a.84.84,0,0,0-.81.79L0,64.55l1.48,11a.83.83,0,0,0,.81.79.85.85,0,0,0,.81-.78h0l1.75-11L3.1,53.32A.86.86,0,0,0,2.29,52.53Zm8.32-6.14a.85.85,0,0,0-1.69,0l-2,18.16,2,17.76a.89.89,0,0,0,.85.83.87.87,0,0,0,.83-.82l2.27-17.77ZM41.94,29.64a1.55,1.55,0,0,0-1.53,1.51L38.82,64.57l1.59,21.6a1.53,1.53,0,0,0,3.06,0h0l1.79-21.6L43.47,31.15A1.57,1.57,0,0,0,41.94,29.64ZM25.72,41.25a1.22,1.22,0,0,0-1.19,1.17L22.75,64.56,24.53,86a1.21,1.21,0,0,0,1.19,1.16A1.23,1.23,0,0,0,26.91,86l2-21.42-2-22.14A1.23,1.23,0,0,0,25.72,41.25ZM58.41,87.67a1.9,1.9,0,0,0,1.88-1.86l1.55-21.23L60.29,20.09a1.91,1.91,0,0,0-1.88-1.86,1.88,1.88,0,0,0-1.87,1.86L55.16,64.58l1.38,21.24A1.88,1.88,0,0,0,58.41,87.67Zm33.74.1a2.58,2.58,0,0,0,2.56-2.55h0l1.08-20.63L94.71,13.21a2.57,2.57,0,0,0-5.13,0l-1,51.36s1,20.65,1,20.65A2.58,2.58,0,0,0,92.15,87.77Zm-17-.08a2.23,2.23,0,0,0,2.22-2.21v0l1.32-20.91L77.37,19.77a2.22,2.22,0,0,0-4.44,0L71.75,64.59l1.18,20.9A2.22,2.22,0,0,0,75.15,87.69ZM33.8,87.5a1.38,1.38,0,0,0,1.35-1.34l1.91-21.6L35.15,44a1.36,1.36,0,0,0-2.71,0L30.75,64.56l1.69,21.6A1.38,1.38,0,0,0,33.8,87.5ZM17.71,86.31a1,1,0,0,0,1-1l2.15-20.76L18.72,43a1,1,0,0,0-2,0L14.81,64.56,16.7,85.32A1,1,0,0,0,17.71,86.31ZM83.62,19a2.4,2.4,0,0,0-2.4,2.38L80.15,64.59l1.07,20.77a2.4,2.4,0,0,0,4.79,0v0l1.2-20.78L86,21.41A2.4,2.4,0,0,0,83.62,19ZM50.14,87.72A1.74,1.74,0,0,0,51.85,86l1.67-21.46-1.67-41a1.74,1.74,0,0,0-1.71-1.69,1.72,1.72,0,0,0-1.7,1.69L47,64.57,48.44,86A1.72,1.72,0,0,0,50.14,87.72Zm18.66-2h0l1.43-21.1-1.43-46a2.05,2.05,0,0,0-4.1,0l-1.28,46L64.7,85.69a2.05,2.05,0,0,0,4.1,0ZM177.36,38.07A24.88,24.88,0,0,0,167.74,40,43.9,43.9,0,0,0,124,0a44.42,44.42,0,0,0-15.91,3c-1.88.73-2.38,1.48-2.39,2.93V84.85a3,3,0,0,0,2.68,2.94l69,0a24.88,24.88,0,0,0,0-49.76ZM100.64,5.83A2.77,2.77,0,0,0,97.9,8.56l-1.12,56L97.9,84.94a2.74,2.74,0,0,0,5.48,0v0L104.6,64.6l-1.22-56A2.77,2.77,0,0,0,100.64,5.83ZM20.09,103.65c-2.94-.7-3.74-1.07-3.74-2.23,0-.82.66-1.67,2.65-1.67a5.66,5.66,0,0,1,4.22,1.91l2.68-2.6a8.87,8.87,0,0,0-6.76-2.92c-3.67,0-6.63,2.07-6.63,5.44,0,3.66,2.38,4.74,5.8,5.54s4.14,1.33,4.14,2.52c0,1.41-1,2-3.24,2a6,6,0,0,1-4.74-2.12l-2.68,2.39A8.59,8.59,0,0,0,19,115.29c5.07,0,7.29-2.39,7.29-5.92C26.29,105.34,23,104.33,20.09,103.65Zm17.08-7.51c-5.06,0-8.06,3.92-8.06,9.58s3,9.57,8.06,9.57,8.06-3.92,8.06-9.57S42.23,96.14,37.17,96.14Zm0,15.46c-3,0-4.24-2.57-4.24-5.88s1.24-5.89,4.24-5.89,4.24,2.57,4.24,5.89S40.17,111.6,37.17,111.6Zm23-4.74c0,3-1.46,4.79-3.81,4.79s-3.8-1.88-3.8-4.85V96.43H48.89v10.43c0,5.4,3,8.43,7.51,8.43,4.72,0,7.53-3.11,7.53-8.49V96.43H60.21Zm19.73-2.58c0,1,0,3.37,0,4.06-.24-.48-.84-1.41-1.29-2.1l-6.58-9.81H68.57V115h3.66v-8.17c0-1-.06-3.37-.06-4.06.24.48.85,1.4,1.3,2.1L80.29,115H83.6V96.43H79.94Zm14.24-7.85H88.37V115h5.54c4.78,0,9.5-2.76,9.5-9.28C103.41,98.92,99.48,96.43,94.18,96.43Zm-.27,15H92.09V100h2c3.92,0,5.54,1.88,5.54,5.68C99.59,109.11,97.81,111.39,93.91,111.39Zm21-11.56a3.54,3.54,0,0,1,3.4,2l3.44-1.59a7,7,0,0,0-6.79-4.11c-4.85,0-8.24,3.92-8.24,9.58,0,5.85,3.26,9.57,8.11,9.57a7.1,7.1,0,0,0,6.87-4.19l-3.13-1.86c-1,1.65-2,2.36-3.63,2.36-2.79,0-4.41-2.55-4.41-5.88S112.11,99.83,114.89,99.83Zm13.77-3.4H125V115h11.16v-3.67h-7.45Zm17.23-.29c-5.07,0-8.07,3.92-8.07,9.58s3,9.57,8.07,9.57,8.06-3.92,8.06-9.57S151,96.14,145.89,96.14Zm0,15.46c-3,0-4.25-2.57-4.25-5.88s1.25-5.89,4.25-5.89,4.24,2.57,4.24,5.89S148.88,111.6,145.89,111.6Zm23-4.74c0,3-1.46,4.79-3.82,4.79s-3.79-1.88-3.79-4.85V96.43h-3.71v10.43c0,5.4,3,8.43,7.5,8.43,4.72,0,7.53-3.11,7.53-8.49V96.43h-3.71Zm14.16-10.43h-5.81V115h5.54c4.78,0,9.5-2.76,9.5-9.28C192.32,98.92,188.39,96.43,183.09,96.43Zm-.27,15H181V100h2c3.92,0,5.54,1.88,5.54,5.68C188.5,109.11,186.72,111.39,182.82,111.39Z"/></g></g></svg>