<svg width="156" height="720" viewBox="0 0 41.275 190.5" xmlns="http://www.w3.org/2000/svg">
    <path class="line" d="M12.22 188.731L9.166 190.5l-3.055-1.769V1.77L9.165 0l3.056 1.769z" fill="#441517"/>
    <g class="date-node d2021">
        <path d="M18.33 15.875l-4.582 7.938H4.583L0 15.875l4.583-7.938h9.165z" fill="#441517"/>
        <path d="M15.276 15.875l-3.055 5.292H6.11l-3.056-5.292 3.055-5.292h6.11z" fill="#fff"/>
        <path class="underline" fill="#441517" d="M22.854 20.373h18.421v.794H22.854z"/>
        <text class="date-label" x="22.49" y="10.054" font-family="Raleway" font-size="8.467" stroke-width=".265"
              style="line-height:1.25" transform="translate(0 7.938)">
            <tspan x="22.49" y="10.054" font-weight="500">2021</tspan>
        </text>
    </g>
    <g class="date-node d2019">
        <path d="M18.33 47.625l-4.582 7.937H4.583L0 47.625l4.583-7.938h9.165z" fill="#441517"/>
        <path d="M15.276 47.625l-3.055 5.292H6.11l-3.056-5.292 3.055-5.292h6.11z" fill="#fff"/>
        <path class="underline" fill="#441517" d="M22.854 52.122h18.421v.794H22.854z"/>
        <text class="date-label" x="22.49" y="10.054" font-family="Raleway" font-size="8.467" stroke-width=".265"
              style="line-height:1.25" transform="translate(0 39.687)">
            <tspan x="22.49" y="10.054" font-weight="500">2019</tspan>
        </text>
    </g>
    <g class="date-node d2018">
        <path d="M18.33 79.375l-4.582 7.938H4.583L0 79.375l4.583-7.937h9.165z" fill="#441517"/>
        <path d="M15.276 79.375l-3.055 5.292H6.11l-3.056-5.292 3.055-5.292h6.11z" fill="#fff"/>
        <path class="underline" fill="#441517" d="M22.854 83.873h18.421v.794H22.854z"/>
        <text class="date-label" x="22.49" y="10.054" font-family="Raleway" font-size="8.467" stroke-width=".265"
              style="line-height:1.25" transform="translate(0 71.438)">
            <tspan x="22.49" y="10.054" font-weight="500">2018</tspan>
        </text>
    </g>
    <g class="date-node d2017">
        <path d="M18.33 111.125l-4.582 7.938H4.583L0 111.125l4.583-7.937h9.165z" fill="#441517"/>
        <path d="M15.276 111.125l-3.055 5.292H6.11l-3.056-5.292 3.055-5.292h6.11z" fill="#fff"/>
        <path class="underline" fill="#441517" d="M22.854 115.623h18.421v.794H22.854z"/>
        <text class="date-label" x="22.49" y="10.054" font-family="Raleway" font-size="8.467" stroke-width=".265"
              style="line-height:1.25" transform="translate(0 103.188)">
            <tspan x="22.49" y="10.054" font-weight="500">2017</tspan>
        </text>
    </g>
    <g class="date-node d2016">
        <path d="M18.33 142.875l-4.582 7.938H4.583L0 142.875l4.583-7.938h9.165z" fill="#441517"/>
        <path d="M15.276 142.875l-3.055 5.292H6.11l-3.056-5.292 3.055-5.292h6.11z" fill="#fff"/>
        <path class="underline" fill="#441517" d="M22.854 147.373h18.421v.794H22.854z"/>
        <text class="date-label" x="22.49" y="10.054" font-family="Raleway" font-size="8.467" stroke-width=".265"
              style="line-height:1.25" transform="translate(0 134.938)">
            <tspan x="22.49" y="10.054" font-weight="500">2016</tspan>
        </text>
    </g>
    <g class="date-node d2015">
        <path d="M18.33 174.625l-4.582 7.938H4.583L0 174.625l4.583-7.938h9.165z" fill="#441517"/>
        <path d="M15.276 174.625l-3.055 5.292H6.11l-3.056-5.292 3.055-5.292h6.11z" fill="#fff"/>
        <path class="underline" fill="#441517" d="M22.854 179.123h18.421v.794H22.854z"/>
        <text class="date-label" x="22.49" y="10.054" font-family="Raleway" font-size="8.467" stroke-width=".265"
              style="line-height:1.25" transform="translate(0 166.688)">
            <tspan x="22.49" y="10.054" font-weight="500">2015</tspan>
        </text>
    </g>
    <path class="current-node" d="M15.276 15.875l-3.055 5.292H6.11l-3.056-5.292 3.055-5.292h6.11z" fill="#8e2621"/>
</svg>